<mxfile host="drawio-plugin" modified="2021-07-29T13:28:25.693Z" agent="5.0 (Windows NT 6.2; Win64; x64) AppleWebKit/537.36 (KHTML, like Gecko) Chrome/87.0.4280.141 Safari/537.36" etag="P1leP0IoMWDcaE62Woab" version="14.7.4" type="embed"><diagram id="C5RBs43oDa-KdzZeNtuy" name="Page-1"><mxGraphModel dx="996" dy="520" grid="1" gridSize="10" guides="1" tooltips="1" connect="1" arrows="1" fold="1" page="1" pageScale="1" pageWidth="827" pageHeight="1169" math="1" shadow="0"><root><mxCell id="WIyWlLk6GJQsqaUBKTNV-0"/><mxCell id="WIyWlLk6GJQsqaUBKTNV-1" parent="WIyWlLk6GJQsqaUBKTNV-0"/><mxCell id="WIyWlLk6GJQsqaUBKTNV-2" value="" style="rounded=0;html=1;jettySize=auto;orthogonalLoop=1;fontSize=11;endArrow=block;endFill=0;endSize=8;strokeWidth=1;shadow=0;labelBackgroundColor=none;edgeStyle=orthogonalEdgeStyle;exitX=0.5;exitY=1;exitDx=0;exitDy=0;entryX=0.5;entryY=0;entryDx=0;entryDy=0;" parent="WIyWlLk6GJQsqaUBKTNV-1" source="4LkI5o0BDePEq0A7LBzw-2" target="WIyWlLk6GJQsqaUBKTNV-6" edge="1"><mxGeometry relative="1" as="geometry"><mxPoint x="60" y="60" as="sourcePoint"/><Array as="points"/></mxGeometry></mxCell><mxCell id="WIyWlLk6GJQsqaUBKTNV-4" value="Si" style="rounded=0;html=1;jettySize=auto;orthogonalLoop=1;fontSize=11;endArrow=block;endFill=0;endSize=8;strokeWidth=1;shadow=0;labelBackgroundColor=none;edgeStyle=orthogonalEdgeStyle;entryX=0.5;entryY=0;entryDx=0;entryDy=0;" parent="WIyWlLk6GJQsqaUBKTNV-1" source="WIyWlLk6GJQsqaUBKTNV-6" target="4LkI5o0BDePEq0A7LBzw-1" edge="1"><mxGeometry y="20" relative="1" as="geometry"><mxPoint as="offset"/><mxPoint x="60" y="230" as="targetPoint"/></mxGeometry></mxCell><mxCell id="WIyWlLk6GJQsqaUBKTNV-5" value="No" style="edgeStyle=orthogonalEdgeStyle;rounded=0;html=1;jettySize=auto;orthogonalLoop=1;fontSize=11;endArrow=block;endFill=0;endSize=8;strokeWidth=1;shadow=0;labelBackgroundColor=none;" parent="WIyWlLk6GJQsqaUBKTNV-1" source="WIyWlLk6GJQsqaUBKTNV-6" target="WIyWlLk6GJQsqaUBKTNV-7" edge="1"><mxGeometry y="10" relative="1" as="geometry"><mxPoint as="offset"/></mxGeometry></mxCell><mxCell id="WIyWlLk6GJQsqaUBKTNV-6" value="&lt;font color=&quot;#000000&quot;&gt;Ci sono clienti in coda?&lt;/font&gt;" style="rhombus;whiteSpace=wrap;html=1;shadow=0;fontFamily=Helvetica;fontSize=12;align=center;strokeWidth=1;spacing=6;spacingTop=-4;fillColor=#fff2cc;strokeColor=#d6b656;" parent="WIyWlLk6GJQsqaUBKTNV-1" vertex="1"><mxGeometry y="90" width="120" height="80" as="geometry"/></mxCell><mxCell id="4LkI5o0BDePEq0A7LBzw-8" style="edgeStyle=orthogonalEdgeStyle;rounded=0;orthogonalLoop=1;jettySize=auto;html=1;exitX=0.5;exitY=0;exitDx=0;exitDy=0;entryX=1;entryY=0.5;entryDx=0;entryDy=0;" parent="WIyWlLk6GJQsqaUBKTNV-1" source="WIyWlLk6GJQsqaUBKTNV-7" target="4LkI5o0BDePEq0A7LBzw-2" edge="1"><mxGeometry relative="1" as="geometry"/></mxCell><mxCell id="WIyWlLk6GJQsqaUBKTNV-7" value="Attendi uno step" style="rounded=1;whiteSpace=wrap;html=1;fontSize=12;glass=0;strokeWidth=1;shadow=0;fillColor=#f5f5f5;strokeColor=#666666;fontColor=#333333;" parent="WIyWlLk6GJQsqaUBKTNV-1" vertex="1"><mxGeometry x="161" y="110" width="120" height="40" as="geometry"/></mxCell><mxCell id="4LkI5o0BDePEq0A7LBzw-1" value="Ottieni un cliente chiedendolo alla coda" style="rounded=1;whiteSpace=wrap;html=1;fillColor=#f5f5f5;strokeColor=#666666;fontColor=#333333;" parent="WIyWlLk6GJQsqaUBKTNV-1" vertex="1"><mxGeometry y="200" width="120" height="60" as="geometry"/></mxCell><mxCell id="4LkI5o0BDePEq0A7LBzw-2" value="In attesa di un nuovo cliente" style="rounded=1;whiteSpace=wrap;html=1;fillColor=#f5f5f5;strokeColor=#666666;fontColor=#333333;" parent="WIyWlLk6GJQsqaUBKTNV-1" vertex="1"><mxGeometry width="120" height="60" as="geometry"/></mxCell><mxCell id="4LkI5o0BDePEq0A7LBzw-3" value="&lt;font color=&quot;#000000&quot;&gt;Spesa&lt;br&gt;finita?&lt;/font&gt;" style="rhombus;whiteSpace=wrap;html=1;fillColor=#fff2cc;strokeColor=#d6b656;" parent="WIyWlLk6GJQsqaUBKTNV-1" vertex="1"><mxGeometry x="10" y="650" width="100" height="80" as="geometry"/></mxCell><mxCell id="4LkI5o0BDePEq0A7LBzw-5" value="No" style="edgeStyle=orthogonalEdgeStyle;rounded=0;html=1;jettySize=auto;orthogonalLoop=1;fontSize=11;endArrow=block;endFill=0;endSize=8;strokeWidth=1;shadow=0;labelBackgroundColor=none;exitX=1;exitY=0.5;exitDx=0;exitDy=0;entryX=0;entryY=0.5;entryDx=0;entryDy=0;" parent="WIyWlLk6GJQsqaUBKTNV-1" source="4LkI5o0BDePEq0A7LBzw-3" target="4LkI5o0BDePEq0A7LBzw-6" edge="1"><mxGeometry y="10" relative="1" as="geometry"><mxPoint as="offset"/><mxPoint x="140" y="510" as="sourcePoint"/><mxPoint x="190" y="740" as="targetPoint"/></mxGeometry></mxCell><mxCell id="4LkI5o0BDePEq0A7LBzw-6" value="$$b_{t+1} = b_{t} + \Delta_{speed}$$" style="rounded=1;whiteSpace=wrap;html=1;fontSize=12;glass=0;strokeWidth=1;shadow=0;fillColor=#f5f5f5;strokeColor=#666666;fontColor=#333333;" parent="WIyWlLk6GJQsqaUBKTNV-1" vertex="1"><mxGeometry x="142.5" y="670" width="157" height="40" as="geometry"/></mxCell><mxCell id="4LkI5o0BDePEq0A7LBzw-30" style="edgeStyle=orthogonalEdgeStyle;rounded=0;orthogonalLoop=1;jettySize=auto;html=1;exitX=0.5;exitY=1;exitDx=0;exitDy=0;entryX=0.5;entryY=0;entryDx=0;entryDy=0;" parent="WIyWlLk6GJQsqaUBKTNV-1" source="4LkI5o0BDePEq0A7LBzw-1" target="6" edge="1"><mxGeometry relative="1" as="geometry"/></mxCell><mxCell id="4LkI5o0BDePEq0A7LBzw-10" value="In fase di elaborazione della spesa del cliente" style="rounded=1;whiteSpace=wrap;html=1;fillColor=#f5f5f5;strokeColor=#666666;fontColor=#333333;" parent="WIyWlLk6GJQsqaUBKTNV-1" vertex="1"><mxGeometry y="560" width="120" height="60" as="geometry"/></mxCell><mxCell id="4LkI5o0BDePEq0A7LBzw-12" value="$$b=$$" style="text;html=1;strokeColor=none;fillColor=none;align=center;verticalAlign=middle;whiteSpace=wrap;rounded=0;" parent="WIyWlLk6GJQsqaUBKTNV-1" vertex="1"><mxGeometry x="227" y="630" width="30" height="20" as="geometry"/></mxCell><mxCell id="4LkI5o0BDePEq0A7LBzw-13" value="Basket size" style="text;html=1;strokeColor=none;fillColor=none;align=center;verticalAlign=middle;whiteSpace=wrap;rounded=0;" parent="WIyWlLk6GJQsqaUBKTNV-1" vertex="1"><mxGeometry x="247" y="630" width="90" height="20" as="geometry"/></mxCell><mxCell id="4LkI5o0BDePEq0A7LBzw-15" value="$$\Delta_{speed}=$$" style="text;html=1;strokeColor=none;fillColor=none;align=center;verticalAlign=middle;whiteSpace=wrap;rounded=0;" parent="WIyWlLk6GJQsqaUBKTNV-1" vertex="1"><mxGeometry x="220" y="650" width="70" height="20" as="geometry"/></mxCell><mxCell id="4LkI5o0BDePEq0A7LBzw-17" value="Velocità di spesa" style="text;html=1;strokeColor=none;fillColor=none;align=center;verticalAlign=middle;whiteSpace=wrap;rounded=0;" parent="WIyWlLk6GJQsqaUBKTNV-1" vertex="1"><mxGeometry x="290" y="650" width="100" height="20" as="geometry"/></mxCell><mxCell id="4LkI5o0BDePEq0A7LBzw-31" style="edgeStyle=orthogonalEdgeStyle;rounded=0;orthogonalLoop=1;jettySize=auto;html=1;entryX=0.5;entryY=0;entryDx=0;entryDy=0;startArrow=none;exitX=0.5;exitY=1;exitDx=0;exitDy=0;" parent="WIyWlLk6GJQsqaUBKTNV-1" source="4LkI5o0BDePEq0A7LBzw-29" target="4LkI5o0BDePEq0A7LBzw-34" edge="1"><mxGeometry relative="1" as="geometry"><mxPoint x="70" y="930" as="sourcePoint"/><mxPoint x="70" y="1050" as="targetPoint"/></mxGeometry></mxCell><mxCell id="4LkI5o0BDePEq0A7LBzw-29" value="Fai uscire il cliente dal negozio" style="rounded=1;whiteSpace=wrap;html=1;fillColor=#f5f5f5;strokeColor=#666666;fontColor=#333333;" parent="WIyWlLk6GJQsqaUBKTNV-1" vertex="1"><mxGeometry y="760" width="120" height="60" as="geometry"/></mxCell><mxCell id="3" style="edgeStyle=orthogonalEdgeStyle;rounded=0;orthogonalLoop=1;jettySize=auto;html=1;exitX=0.5;exitY=1;exitDx=0;exitDy=0;entryX=0.5;entryY=0;entryDx=0;entryDy=0;" edge="1" parent="WIyWlLk6GJQsqaUBKTNV-1" source="4LkI5o0BDePEq0A7LBzw-10" target="4LkI5o0BDePEq0A7LBzw-3"><mxGeometry relative="1" as="geometry"><mxPoint x="80" y="660" as="sourcePoint"/><mxPoint x="80" y="700" as="targetPoint"/></mxGeometry></mxCell><mxCell id="4" style="edgeStyle=orthogonalEdgeStyle;rounded=0;orthogonalLoop=1;jettySize=auto;html=1;exitX=0.5;exitY=0;exitDx=0;exitDy=0;entryX=1;entryY=0.5;entryDx=0;entryDy=0;" edge="1" parent="WIyWlLk6GJQsqaUBKTNV-1" source="4LkI5o0BDePEq0A7LBzw-6" target="4LkI5o0BDePEq0A7LBzw-10"><mxGeometry relative="1" as="geometry"><mxPoint x="90" y="670" as="sourcePoint"/><mxPoint x="90" y="710" as="targetPoint"/></mxGeometry></mxCell><mxCell id="5" value="Si" style="edgeStyle=orthogonalEdgeStyle;rounded=0;orthogonalLoop=1;jettySize=auto;html=1;exitX=0.5;exitY=1;exitDx=0;exitDy=0;entryX=0.5;entryY=0;entryDx=0;entryDy=0;" edge="1" parent="WIyWlLk6GJQsqaUBKTNV-1" source="4LkI5o0BDePEq0A7LBzw-3" target="4LkI5o0BDePEq0A7LBzw-29"><mxGeometry y="20" relative="1" as="geometry"><mxPoint as="offset"/><mxPoint x="80" y="1140" as="sourcePoint"/><mxPoint x="80" y="1190" as="targetPoint"/></mxGeometry></mxCell><mxCell id="6" value="Cambia stato al cliente in fase di attesa alla cassa" style="rounded=1;whiteSpace=wrap;html=1;fillColor=#f5f5f5;strokeColor=#666666;fontColor=#333333;" vertex="1" parent="WIyWlLk6GJQsqaUBKTNV-1"><mxGeometry y="290" width="120" height="60" as="geometry"/></mxCell><mxCell id="7" value="Muovi il cliente di fianco" style="rounded=1;whiteSpace=wrap;html=1;fillColor=#f5f5f5;strokeColor=#666666;fontColor=#333333;" vertex="1" parent="WIyWlLk6GJQsqaUBKTNV-1"><mxGeometry y="380" width="120" height="60" as="geometry"/></mxCell><mxCell id="8" value="Fai avanzare i clienti in coda" style="rounded=1;whiteSpace=wrap;html=1;fillColor=#f5f5f5;strokeColor=#666666;fontColor=#333333;" vertex="1" parent="WIyWlLk6GJQsqaUBKTNV-1"><mxGeometry y="470" width="120" height="60" as="geometry"/></mxCell><mxCell id="9" style="edgeStyle=orthogonalEdgeStyle;rounded=0;orthogonalLoop=1;jettySize=auto;html=1;exitX=0.5;exitY=1;exitDx=0;exitDy=0;entryX=0.5;entryY=0;entryDx=0;entryDy=0;" edge="1" parent="WIyWlLk6GJQsqaUBKTNV-1" source="6" target="7"><mxGeometry relative="1" as="geometry"><mxPoint x="70" y="310" as="sourcePoint"/><mxPoint x="70" y="410" as="targetPoint"/></mxGeometry></mxCell><mxCell id="10" style="edgeStyle=orthogonalEdgeStyle;rounded=0;orthogonalLoop=1;jettySize=auto;html=1;exitX=0.5;exitY=1;exitDx=0;exitDy=0;entryX=0.5;entryY=0;entryDx=0;entryDy=0;" edge="1" parent="WIyWlLk6GJQsqaUBKTNV-1" source="7" target="8"><mxGeometry relative="1" as="geometry"><mxPoint x="70" y="400" as="sourcePoint"/><mxPoint x="70" y="430" as="targetPoint"/></mxGeometry></mxCell><mxCell id="11" style="edgeStyle=orthogonalEdgeStyle;rounded=0;orthogonalLoop=1;jettySize=auto;html=1;exitX=0.5;exitY=1;exitDx=0;exitDy=0;entryX=0.5;entryY=0;entryDx=0;entryDy=0;" edge="1" parent="WIyWlLk6GJQsqaUBKTNV-1" source="8" target="4LkI5o0BDePEq0A7LBzw-10"><mxGeometry relative="1" as="geometry"><mxPoint x="80" y="410" as="sourcePoint"/><mxPoint x="80" y="440" as="targetPoint"/></mxGeometry></mxCell><mxCell id="4LkI5o0BDePEq0A7LBzw-34" value="In fase di attesa di un nuovo cliente" style="rounded=1;whiteSpace=wrap;html=1;fillColor=#f5f5f5;strokeColor=#666666;fontColor=#333333;" parent="WIyWlLk6GJQsqaUBKTNV-1" vertex="1"><mxGeometry y="850" width="120" height="60" as="geometry"/></mxCell></root></mxGraphModel></diagram></mxfile>